<?xml version="1.0" encoding="utf-8"?>
<!DOCTYPE svg PUBLIC "-//W3C//DTD SVG 1.0//EN" "http://www.w3.org/TR/2001/REC-SVG-20010904/DTD/svg10.dtd" [
  <!ENTITY st0 "fill-rule:evenodd;clip-rule:evenodd;fill:#000000;">
  <!ENTITY st1 "fill:#000000;">
]>
<svg version="1.0" id="Layer_1" xmlns="http://www.w3.org/2000/svg" xmlns:xlink="http://www.w3.org/1999/xlink" x="0px" y="0px" width="667px" height="107px" viewBox="-10 -10 667 107" style="enable-background:new 0 0 667 107;" xml:space="preserve">
<g transform="translate(0, 0)"><rect class="day" width="10px" height="10px" y="0" style="fill: #eeeeee"/><rect class="day" width="10px" height="10px" y="12" style="fill: #eeeeee"/><rect class="day" width="10px" height="10px" y="24" style="fill: #eed5da"/><rect class="day" width="10px" height="10px" y="36" style="fill: #eed6dc"/><rect class="day" width="10px" height="10px" y="48" style="fill: #eed9de"/><rect class="day" width="10px" height="10px" y="60" style="fill: #eedade"/><rect class="day" width="10px" height="10px" y="72" style="fill: #eed6dc"/></g><g transform="translate(12, 0)"><rect class="day" width="10px" height="10px" y="0" style="fill: #eed5da"/><rect class="day" width="10px" height="10px" y="12" style="fill: #eed5da"/><rect class="day" width="10px" height="10px" y="24" style="fill: #eed8dd"/><rect class="day" width="10px" height="10px" y="36" style="fill: #eed3d9"/><rect class="day" width="10px" height="10px" y="48" style="fill: #eed3d9"/><rect class="day" width="10px" height="10px" y="60" style="fill: #eeeeee"/><rect class="day" width="10px" height="10px" y="72" style="fill: #eedbdf"/></g><g transform="translate(24, 0)"><rect class="day" width="10px" height="10px" y="0" style="fill: #eed5da"/><rect class="day" width="10px" height="10px" y="12" style="fill: #eed5da"/><rect class="day" width="10px" height="10px" y="24" style="fill: #dac9dd"/><rect class="day" width="10px" height="10px" y="36" style="fill: #dac9dd"/><rect class="day" width="10px" height="10px" y="48" style="fill: #eed2d8"/><rect class="day" width="10px" height="10px" y="60" style="fill: #d7c9df"/><rect class="day" width="10px" height="10px" y="72" style="fill: #d8c6dc"/></g><g transform="translate(36, 0)"><rect class="day" width="10px" height="10px" y="0" style="fill: #d8c1d8"/><rect class="day" width="10px" height="10px" y="12" style="fill: #d0bdda"/><rect class="day" width="10px" height="10px" y="24" style="fill: #d6c1d9"/><rect class="day" width="10px" height="10px" y="36" style="fill: #dbdfee"/><rect class="day" width="10px" height="10px" y="48" style="fill: #eedade"/><rect class="day" width="10px" height="10px" y="60" style="fill: #ced5ee"/><rect class="day" width="10px" height="10px" y="72" style="fill: #dbdfee"/></g><g transform="translate(48, 0)"><rect class="day" width="10px" height="10px" y="0" style="fill: #eedade"/><rect class="day" width="10px" height="10px" y="12" style="fill: #d2c4de"/><rect class="day" width="10px" height="10px" y="24" style="fill: #d4c1da"/><rect class="day" width="10px" height="10px" y="36" style="fill: #eed1d8"/><rect class="day" width="10px" height="10px" y="48" style="fill: #dac8dc"/><rect class="day" width="10px" height="10px" y="60" style="fill: #eeeeee"/><rect class="day" width="10px" height="10px" y="72" style="fill: #eeeeee"/></g><g transform="translate(60, 0)"><rect class="day" width="10px" height="10px" y="0" style="fill: #dac9dd"/><rect class="day" width="10px" height="10px" y="12" style="fill: #d6c5dc"/><rect class="day" width="10px" height="10px" y="24" style="fill: #d7c5dc"/><rect class="day" width="10px" height="10px" y="36" style="fill: #d6c7de"/><rect class="day" width="10px" height="10px" y="48" style="fill: #eeeeee"/><rect class="day" width="10px" height="10px" y="60" style="fill: #eeeeee"/><rect class="day" width="10px" height="10px" y="72" style="fill: #eeeeee"/></g><g transform="translate(72, 0)"><rect class="day" width="10px" height="10px" y="0" style="fill: #eeeeee"/><rect class="day" width="10px" height="10px" y="12" style="fill: #dbdfee"/><rect class="day" width="10px" height="10px" y="24" style="fill: #eed6db"/><rect class="day" width="10px" height="10px" y="36" style="fill: #eed9de"/><rect class="day" width="10px" height="10px" y="48" style="fill: #eed1d8"/><rect class="day" width="10px" height="10px" y="60" style="fill: #eeeeee"/><rect class="day" width="10px" height="10px" y="72" style="fill: #eeeeee"/></g><g transform="translate(84, 0)"><rect class="day" width="10px" height="10px" y="0" style="fill: #eed5da"/><rect class="day" width="10px" height="10px" y="12" style="fill: #eed6dc"/><rect class="day" width="10px" height="10px" y="24" style="fill: #dac2d8"/><rect class="day" width="10px" height="10px" y="36" style="fill: #d6c7de"/><rect class="day" width="10px" height="10px" y="48" style="fill: #d8c2d9"/><rect class="day" width="10px" height="10px" y="60" style="fill: #d3c1db"/><rect class="day" width="10px" height="10px" y="72" style="fill: #eedbdf"/></g><g transform="translate(96, 0)"><rect class="day" width="10px" height="10px" y="0" style="fill: #eed8dd"/><rect class="day" width="10px" height="10px" y="12" style="fill: #eed2d8"/><rect class="day" width="10px" height="10px" y="24" style="fill: #eed6dc"/><rect class="day" width="10px" height="10px" y="36" style="fill: #eecbd3"/><rect class="day" width="10px" height="10px" y="48" style="fill: #eed7dc"/><rect class="day" width="10px" height="10px" y="60" style="fill: #eeeeee"/><rect class="day" width="10px" height="10px" y="72" style="fill: #eeeeee"/></g><g transform="translate(108, 0)"><rect class="day" width="10px" height="10px" y="0" style="fill: #eed8dd"/><rect class="day" width="10px" height="10px" y="12" style="fill: #dbc5da"/><rect class="day" width="10px" height="10px" y="24" style="fill: #dbb9d0"/><rect class="day" width="10px" height="10px" y="36" style="fill: #d7c3da"/><rect class="day" width="10px" height="10px" y="48" style="fill: #eec9d1"/><rect class="day" width="10px" height="10px" y="60" style="fill: #eecfd6"/><rect class="day" width="10px" height="10px" y="72" style="fill: #eeeeee"/></g><g transform="translate(120, 0)"><rect class="day" width="10px" height="10px" y="0" style="fill: #d0b7d5"/><rect class="day" width="10px" height="10px" y="12" style="fill: #d6bed6"/><rect class="day" width="10px" height="10px" y="24" style="fill: #dbcade"/><rect class="day" width="10px" height="10px" y="36" style="fill: #d9c9de"/><rect class="day" width="10px" height="10px" y="48" style="fill: #ceadce"/><rect class="day" width="10px" height="10px" y="60" style="fill: #cfb8d6"/><rect class="day" width="10px" height="10px" y="72" style="fill: #d6c9df"/></g><g transform="translate(132, 0)"><rect class="day" width="10px" height="10px" y="0" style="fill: #d6c6de"/><rect class="day" width="10px" height="10px" y="12" style="fill: #eed2d8"/><rect class="day" width="10px" height="10px" y="24" style="fill: #dabed4"/><rect class="day" width="10px" height="10px" y="36" style="fill: #d4b6d2"/><rect class="day" width="10px" height="10px" y="48" style="fill: #eed0d7"/><rect class="day" width="10px" height="10px" y="60" style="fill: #eedade"/><rect class="day" width="10px" height="10px" y="72" style="fill: #d5daee"/></g><g transform="translate(144, 0)"><rect class="day" width="10px" height="10px" y="0" style="fill: #eec7d0"/><rect class="day" width="10px" height="10px" y="12" style="fill: #eec6cf"/><rect class="day" width="10px" height="10px" y="24" style="fill: #dbc1d6"/><rect class="day" width="10px" height="10px" y="36" style="fill: #d5bdd7"/><rect class="day" width="10px" height="10px" y="48" style="fill: #d9c3d9"/><rect class="day" width="10px" height="10px" y="60" style="fill: #d9deee"/><rect class="day" width="10px" height="10px" y="72" style="fill: #d1d8ee"/></g><g transform="translate(156, 0)"><rect class="day" width="10px" height="10px" y="0" style="fill: #dbcbde"/><rect class="day" width="10px" height="10px" y="12" style="fill: #eedade"/><rect class="day" width="10px" height="10px" y="24" style="fill: #eedade"/><rect class="day" width="10px" height="10px" y="36" style="fill: #d3c1db"/><rect class="day" width="10px" height="10px" y="48" style="fill: #dbc9dc"/><rect class="day" width="10px" height="10px" y="60" style="fill: #dac6db"/><rect class="day" width="10px" height="10px" y="72" style="fill: #d3c5de"/></g><g transform="translate(168, 0)"><rect class="day" width="10px" height="10px" y="0" style="fill: #d0bcd9"/><rect class="day" width="10px" height="10px" y="12" style="fill: #d0bbd8"/><rect class="day" width="10px" height="10px" y="24" style="fill: #d2bed9"/><rect class="day" width="10px" height="10px" y="36" style="fill: #d0beda"/><rect class="day" width="10px" height="10px" y="48" style="fill: #dbc0d6"/><rect class="day" width="10px" height="10px" y="60" style="fill: #eeeeee"/><rect class="day" width="10px" height="10px" y="72" style="fill: #d8c8de"/></g><g transform="translate(180, 0)"><rect class="day" width="10px" height="10px" y="0" style="fill: #d7c0d8"/><rect class="day" width="10px" height="10px" y="12" style="fill: #d9c8dd"/><rect class="day" width="10px" height="10px" y="24" style="fill: #d9cade"/><rect class="day" width="10px" height="10px" y="36" style="fill: #d6c7de"/><rect class="day" width="10px" height="10px" y="48" style="fill: #cdc1df"/><rect class="day" width="10px" height="10px" y="60" style="fill: #d9deee"/><rect class="day" width="10px" height="10px" y="72" style="fill: #dacbdf"/></g><g transform="translate(192, 0)"><rect class="day" width="10px" height="10px" y="0" style="fill: #d5c1da"/><rect class="day" width="10px" height="10px" y="12" style="fill: #d5bcd6"/><rect class="day" width="10px" height="10px" y="24" style="fill: #dabfd5"/><rect class="day" width="10px" height="10px" y="36" style="fill: #dbbed4"/><rect class="day" width="10px" height="10px" y="48" style="fill: #d6bdd6"/><rect class="day" width="10px" height="10px" y="60" style="fill: #eeeeee"/><rect class="day" width="10px" height="10px" y="72" style="fill: #d6c7de"/></g><g transform="translate(204, 0)"><rect class="day" width="10px" height="10px" y="0" style="fill: #d6bad4"/><rect class="day" width="10px" height="10px" y="12" style="fill: #dabbd2"/><rect class="day" width="10px" height="10px" y="24" style="fill: #eecfd6"/><rect class="day" width="10px" height="10px" y="36" style="fill: #dac8dc"/><rect class="day" width="10px" height="10px" y="48" style="fill: #dac5da"/><rect class="day" width="10px" height="10px" y="60" style="fill: #d9c4da"/><rect class="day" width="10px" height="10px" y="72" style="fill: #dbc8dc"/></g><g transform="translate(216, 0)"><rect class="day" width="10px" height="10px" y="0" style="fill: #dbbdd3"/><rect class="day" width="10px" height="10px" y="12" style="fill: #dbbcd2"/><rect class="day" width="10px" height="10px" y="24" style="fill: #eed6db"/><rect class="day" width="10px" height="10px" y="36" style="fill: #dbbed4"/><rect class="day" width="10px" height="10px" y="48" style="fill: #eed5da"/><rect class="day" width="10px" height="10px" y="60" style="fill: #eeeeee"/><rect class="day" width="10px" height="10px" y="72" style="fill: #eed9de"/></g><g transform="translate(228, 0)"><rect class="day" width="10px" height="10px" y="0" style="fill: #d9c6db"/><rect class="day" width="10px" height="10px" y="12" style="fill: #eed7dc"/><rect class="day" width="10px" height="10px" y="24" style="fill: #eed6db"/><rect class="day" width="10px" height="10px" y="36" style="fill: #eed8dd"/><rect class="day" width="10px" height="10px" y="48" style="fill: #eedbdf"/><rect class="day" width="10px" height="10px" y="60" style="fill: #eedbdf"/><rect class="day" width="10px" height="10px" y="72" style="fill: #eedade"/></g><g transform="translate(240, 0)"><rect class="day" width="10px" height="10px" y="0" style="fill: #dac9dd"/><rect class="day" width="10px" height="10px" y="12" style="fill: #eed5da"/><rect class="day" width="10px" height="10px" y="24" style="fill: #eecfd6"/><rect class="day" width="10px" height="10px" y="36" style="fill: #dabed4"/><rect class="day" width="10px" height="10px" y="48" style="fill: #eecdd4"/><rect class="day" width="10px" height="10px" y="60" style="fill: #eed9de"/><rect class="day" width="10px" height="10px" y="72" style="fill: #eedbdf"/></g><g transform="translate(252, 0)"><rect class="day" width="10px" height="10px" y="0" style="fill: #eed2d8"/><rect class="day" width="10px" height="10px" y="12" style="fill: #eed6dc"/><rect class="day" width="10px" height="10px" y="24" style="fill: #eed5da"/><rect class="day" width="10px" height="10px" y="36" style="fill: #eed4da"/><rect class="day" width="10px" height="10px" y="48" style="fill: #eecfd6"/><rect class="day" width="10px" height="10px" y="60" style="fill: #eed6dc"/><rect class="day" width="10px" height="10px" y="72" style="fill: #eed7dc"/></g><g transform="translate(264, 0)"><rect class="day" width="10px" height="10px" y="0" style="fill: #eec5ce"/><rect class="day" width="10px" height="10px" y="12" style="fill: #eed3d9"/><rect class="day" width="10px" height="10px" y="24" style="fill: #eed1d8"/><rect class="day" width="10px" height="10px" y="36" style="fill: #eed7dc"/><rect class="day" width="10px" height="10px" y="48" style="fill: #eecfd6"/><rect class="day" width="10px" height="10px" y="60" style="fill: #dbdfee"/><rect class="day" width="10px" height="10px" y="72" style="fill: #eeeeee"/></g><g transform="translate(276, 0)"><rect class="day" width="10px" height="10px" y="0" style="fill: #eed9de"/><rect class="day" width="10px" height="10px" y="12" style="fill: #eed6db"/><rect class="day" width="10px" height="10px" y="24" style="fill: #eedbdf"/><rect class="day" width="10px" height="10px" y="36" style="fill: #eed0d6"/><rect class="day" width="10px" height="10px" y="48" style="fill: #eed6dc"/><rect class="day" width="10px" height="10px" y="60" style="fill: #eeeeee"/><rect class="day" width="10px" height="10px" y="72" style="fill: #d3d9ee"/></g><g transform="translate(288, 0)"><rect class="day" width="10px" height="10px" y="0" style="fill: #eedbdf"/><rect class="day" width="10px" height="10px" y="12" style="fill: #dbcade"/><rect class="day" width="10px" height="10px" y="24" style="fill: #eed7dc"/><rect class="day" width="10px" height="10px" y="36" style="fill: #eed0d6"/><rect class="day" width="10px" height="10px" y="48" style="fill: #eed3d9"/><rect class="day" width="10px" height="10px" y="60" style="fill: #eeeeee"/><rect class="day" width="10px" height="10px" y="72" style="fill: #eeeeee"/></g><g transform="translate(300, 0)"><rect class="day" width="10px" height="10px" y="0" style="fill: #eed6dc"/><rect class="day" width="10px" height="10px" y="12" style="fill: #eed6db"/><rect class="day" width="10px" height="10px" y="24" style="fill: #eed1d8"/><rect class="day" width="10px" height="10px" y="36" style="fill: #d8c7dd"/><rect class="day" width="10px" height="10px" y="48" style="fill: #eedbdf"/><rect class="day" width="10px" height="10px" y="60" style="fill: #eeeeee"/><rect class="day" width="10px" height="10px" y="72" style="fill: #eeeeee"/></g><g transform="translate(312, 0)"><rect class="day" width="10px" height="10px" y="0" style="fill: #eed7dc"/><rect class="day" width="10px" height="10px" y="12" style="fill: #eed0d7"/><rect class="day" width="10px" height="10px" y="24" style="fill: #eed6db"/><rect class="day" width="10px" height="10px" y="36" style="fill: #eed2d8"/><rect class="day" width="10px" height="10px" y="48" style="fill: #eed3d9"/><rect class="day" width="10px" height="10px" y="60" style="fill: #eedbdf"/><rect class="day" width="10px" height="10px" y="72" style="fill: #eedbdf"/></g><g transform="translate(324, 0)"><rect class="day" width="10px" height="10px" y="0" style="fill: #eed3d9"/><rect class="day" width="10px" height="10px" y="12" style="fill: #eed6db"/><rect class="day" width="10px" height="10px" y="24" style="fill: #d7c1d8"/><rect class="day" width="10px" height="10px" y="36" style="fill: #eed7dc"/><rect class="day" width="10px" height="10px" y="48" style="fill: #eecbd3"/><rect class="day" width="10px" height="10px" y="60" style="fill: #eeeeee"/><rect class="day" width="10px" height="10px" y="72" style="fill: #eeeeee"/></g><g transform="translate(336, 0)"><rect class="day" width="10px" height="10px" y="0" style="fill: #d0c4df"/><rect class="day" width="10px" height="10px" y="12" style="fill: #d7c1d8"/><rect class="day" width="10px" height="10px" y="24" style="fill: #dbcade"/><rect class="day" width="10px" height="10px" y="36" style="fill: #d7c3da"/><rect class="day" width="10px" height="10px" y="48" style="fill: #eed3d9"/><rect class="day" width="10px" height="10px" y="60" style="fill: #dbccdf"/><rect class="day" width="10px" height="10px" y="72" style="fill: #eed9de"/></g><g transform="translate(348, 0)"><rect class="day" width="10px" height="10px" y="0" style="fill: #eeccd4"/><rect class="day" width="10px" height="10px" y="12" style="fill: #d6bbd4"/><rect class="day" width="10px" height="10px" y="24" style="fill: #cbafd2"/><rect class="day" width="10px" height="10px" y="36" style="fill: #dbc6da"/><rect class="day" width="10px" height="10px" y="48" style="fill: #d2c2dc"/><rect class="day" width="10px" height="10px" y="60" style="fill: #eedbdf"/><rect class="day" width="10px" height="10px" y="72" style="fill: #eeeeee"/></g><g transform="translate(360, 0)"><rect class="day" width="10px" height="10px" y="0" style="fill: #eed9de"/><rect class="day" width="10px" height="10px" y="12" style="fill: #dac0d6"/><rect class="day" width="10px" height="10px" y="24" style="fill: #eed4da"/><rect class="day" width="10px" height="10px" y="36" style="fill: #d9c4da"/><rect class="day" width="10px" height="10px" y="48" style="fill: #eed6dc"/><rect class="day" width="10px" height="10px" y="60" style="fill: #d9cbdf"/><rect class="day" width="10px" height="10px" y="72" style="fill: #d2c5de"/></g><g transform="translate(372, 0)"><rect class="day" width="10px" height="10px" y="0" style="fill: #d6c7de"/><rect class="day" width="10px" height="10px" y="12" style="fill: #d9cade"/><rect class="day" width="10px" height="10px" y="24" style="fill: #eed3d9"/><rect class="day" width="10px" height="10px" y="36" style="fill: #eed0d6"/><rect class="day" width="10px" height="10px" y="48" style="fill: #dac7dc"/><rect class="day" width="10px" height="10px" y="60" style="fill: #cabbdc"/><rect class="day" width="10px" height="10px" y="72" style="fill: #d2d8ee"/></g><g transform="translate(384, 0)"><rect class="day" width="10px" height="10px" y="0" style="fill: #dac7dc"/><rect class="day" width="10px" height="10px" y="12" style="fill: #d7bed6"/><rect class="day" width="10px" height="10px" y="24" style="fill: #d0adce"/><rect class="day" width="10px" height="10px" y="36" style="fill: #dbdfee"/><rect class="day" width="10px" height="10px" y="48" style="fill: #d5bfd8"/><rect class="day" width="10px" height="10px" y="60" style="fill: #d7c8de"/><rect class="day" width="10px" height="10px" y="72" style="fill: #dacbdf"/></g><g transform="translate(396, 0)"><rect class="day" width="10px" height="10px" y="0" style="fill: #d7c5dc"/><rect class="day" width="10px" height="10px" y="12" style="fill: #d8c2d8"/><rect class="day" width="10px" height="10px" y="24" style="fill: #dbbbd2"/><rect class="day" width="10px" height="10px" y="36" style="fill: #dbc4d8"/><rect class="day" width="10px" height="10px" y="48" style="fill: #eed1d8"/><rect class="day" width="10px" height="10px" y="60" style="fill: #d8cadf"/><rect class="day" width="10px" height="10px" y="72" style="fill: #d9cbdf"/></g><g transform="translate(408, 0)"><rect class="day" width="10px" height="10px" y="0" style="fill: #d7bed6"/><rect class="day" width="10px" height="10px" y="12" style="fill: #d8c2d8"/><rect class="day" width="10px" height="10px" y="24" style="fill: #dabad2"/><rect class="day" width="10px" height="10px" y="36" style="fill: #eecbd3"/><rect class="day" width="10px" height="10px" y="48" style="fill: #d7c2d9"/><rect class="day" width="10px" height="10px" y="60" style="fill: #d5daee"/><rect class="day" width="10px" height="10px" y="72" style="fill: #eeeeee"/></g><g transform="translate(420, 0)"><rect class="day" width="10px" height="10px" y="0" style="fill: #eed9de"/><rect class="day" width="10px" height="10px" y="12" style="fill: #eec5ce"/><rect class="day" width="10px" height="10px" y="24" style="fill: #eed7dc"/><rect class="day" width="10px" height="10px" y="36" style="fill: #dbc1d6"/><rect class="day" width="10px" height="10px" y="48" style="fill: #eed1d8"/><rect class="day" width="10px" height="10px" y="60" style="fill: #eedade"/><rect class="day" width="10px" height="10px" y="72" style="fill: #dac6db"/></g><g transform="translate(432, 0)"><rect class="day" width="10px" height="10px" y="0" style="fill: #eec4cd"/><rect class="day" width="10px" height="10px" y="12" style="fill: #dbb8cf"/><rect class="day" width="10px" height="10px" y="24" style="fill: #eec8d0"/><rect class="day" width="10px" height="10px" y="36" style="fill: #eeccd4"/><rect class="day" width="10px" height="10px" y="48" style="fill: #d9c1d8"/><rect class="day" width="10px" height="10px" y="60" style="fill: #eedade"/><rect class="day" width="10px" height="10px" y="72" style="fill: #eeeeee"/></g><g transform="translate(444, 0)"><rect class="day" width="10px" height="10px" y="0" style="fill: #eed4da"/><rect class="day" width="10px" height="10px" y="12" style="fill: #eec9d1"/><rect class="day" width="10px" height="10px" y="24" style="fill: #eedade"/><rect class="day" width="10px" height="10px" y="36" style="fill: #eeeeee"/><rect class="day" width="10px" height="10px" y="48" style="fill: #eeeeee"/><rect class="day" width="10px" height="10px" y="60" style="fill: #eedbdf"/><rect class="day" width="10px" height="10px" y="72" style="fill: #eedbdf"/></g><g transform="translate(456, 0)"><rect class="day" width="10px" height="10px" y="0" style="fill: #eec8d0"/><rect class="day" width="10px" height="10px" y="12" style="fill: #dbbfd5"/><rect class="day" width="10px" height="10px" y="24" style="fill: #d9bbd3"/><rect class="day" width="10px" height="10px" y="36" style="fill: #dac3d8"/><rect class="day" width="10px" height="10px" y="48" style="fill: #d3bdd8"/><rect class="day" width="10px" height="10px" y="60" style="fill: #d6bfd8"/><rect class="day" width="10px" height="10px" y="72" style="fill: #d6c9df"/></g><g transform="translate(468, 0)"><rect class="day" width="10px" height="10px" y="0" style="fill: #eed5da"/><rect class="day" width="10px" height="10px" y="12" style="fill: #eec7d0"/><rect class="day" width="10px" height="10px" y="24" style="fill: #eed6dc"/><rect class="day" width="10px" height="10px" y="36" style="fill: #eedbdf"/><rect class="day" width="10px" height="10px" y="48" style="fill: #eed0d6"/><rect class="day" width="10px" height="10px" y="60" style="fill: #dbdfee"/><rect class="day" width="10px" height="10px" y="72" style="fill: #dbcbde"/></g><g transform="translate(480, 0)"><rect class="day" width="10px" height="10px" y="0" style="fill: #d8c2d9"/><rect class="day" width="10px" height="10px" y="12" style="fill: #d9c3d9"/><rect class="day" width="10px" height="10px" y="24" style="fill: #eed9de"/><rect class="day" width="10px" height="10px" y="36" style="fill: #dbc8dc"/><rect class="day" width="10px" height="10px" y="48" style="fill: #d8c1d8"/><rect class="day" width="10px" height="10px" y="60" style="fill: #d7dcee"/><rect class="day" width="10px" height="10px" y="72" style="fill: #d9deee"/></g><g transform="translate(492, 0)"><rect class="day" width="10px" height="10px" y="0" style="fill: #eed2d8"/><rect class="day" width="10px" height="10px" y="12" style="fill: #d8c8de"/><rect class="day" width="10px" height="10px" y="24" style="fill: #eed6dc"/><rect class="day" width="10px" height="10px" y="36" style="fill: #dbc1d6"/><rect class="day" width="10px" height="10px" y="48" style="fill: #d9bed5"/><rect class="day" width="10px" height="10px" y="60" style="fill: #eeeeee"/><rect class="day" width="10px" height="10px" y="72" style="fill: #dbdfee"/></g><g transform="translate(504, 0)"><rect class="day" width="10px" height="10px" y="0" style="fill: #eed4da"/><rect class="day" width="10px" height="10px" y="12" style="fill: #d1b5d2"/><rect class="day" width="10px" height="10px" y="24" style="fill: #d2afcd"/><rect class="day" width="10px" height="10px" y="36" style="fill: #cea7ca"/><rect class="day" width="10px" height="10px" y="48" style="fill: #d8c3da"/><rect class="day" width="10px" height="10px" y="60" style="fill: #eeeeee"/><rect class="day" width="10px" height="10px" y="72" style="fill: #eedbdf"/></g><g transform="translate(516, 0)"><rect class="day" width="10px" height="10px" y="0" style="fill: #dbb8cf"/><rect class="day" width="10px" height="10px" y="12" style="fill: #eecbd3"/><rect class="day" width="10px" height="10px" y="24" style="fill: #dbc1d6"/><rect class="day" width="10px" height="10px" y="36" style="fill: #eecfd6"/><rect class="day" width="10px" height="10px" y="48" style="fill: #dacade"/><rect class="day" width="10px" height="10px" y="60" style="fill: #d7c9df"/><rect class="day" width="10px" height="10px" y="72" style="fill: #d0c3de"/></g><g transform="translate(528, 0)"><rect class="day" width="10px" height="10px" y="0" style="fill: #dbc4d9"/><rect class="day" width="10px" height="10px" y="12" style="fill: #dac3d8"/><rect class="day" width="10px" height="10px" y="24" style="fill: #eed6dc"/><rect class="day" width="10px" height="10px" y="36" style="fill: #dac5da"/><rect class="day" width="10px" height="10px" y="48" style="fill: #eed6dc"/><rect class="day" width="10px" height="10px" y="60" style="fill: #d7c9df"/><rect class="day" width="10px" height="10px" y="72" style="fill: #cdc1de"/></g><g transform="translate(540, 0)"><rect class="day" width="10px" height="10px" y="0" style="fill: #d3c3dc"/><rect class="day" width="10px" height="10px" y="12" style="fill: #d9c7dc"/><rect class="day" width="10px" height="10px" y="24" style="fill: #dac5da"/><rect class="day" width="10px" height="10px" y="36" style="fill: #d6c3db"/><rect class="day" width="10px" height="10px" y="48" style="fill: #dbc6da"/><rect class="day" width="10px" height="10px" y="60" style="fill: #d2c3dd"/><rect class="day" width="10px" height="10px" y="72" style="fill: #d5c7df"/></g><g transform="translate(552, 0)"><rect class="day" width="10px" height="10px" y="0" style="fill: #d8c5db"/><rect class="day" width="10px" height="10px" y="12" style="fill: #eecbd3"/><rect class="day" width="10px" height="10px" y="24" style="fill: #eecbd3"/><rect class="day" width="10px" height="10px" y="36" style="fill: #eec2cc"/><rect class="day" width="10px" height="10px" y="48" style="fill: #d9c6db"/><rect class="day" width="10px" height="10px" y="60" style="fill: #eeeeee"/><rect class="day" width="10px" height="10px" y="72" style="fill: #eed7dc"/></g><g transform="translate(564, 0)"><rect class="day" width="10px" height="10px" y="0" style="fill: #d9c5da"/><rect class="day" width="10px" height="10px" y="12" style="fill: #eecbd2"/><rect class="day" width="10px" height="10px" y="24" style="fill: #eec2cc"/><rect class="day" width="10px" height="10px" y="36" style="fill: #eec8d0"/><rect class="day" width="10px" height="10px" y="48" style="fill: #dbbbd2"/><rect class="day" width="10px" height="10px" y="60" style="fill: #eedbdf"/><rect class="day" width="10px" height="10px" y="72" style="fill: #eed6db"/></g><g transform="translate(576, 0)"><rect class="day" width="10px" height="10px" y="0" style="fill: #dbc4d9"/><rect class="day" width="10px" height="10px" y="12" style="fill: #dab4cc"/><rect class="day" width="10px" height="10px" y="24" style="fill: #eeced5"/><rect class="day" width="10px" height="10px" y="36" style="fill: #eed0d6"/><rect class="day" width="10px" height="10px" y="48" style="fill: #dac9dd"/><rect class="day" width="10px" height="10px" y="60" style="fill: #d6c2da"/><rect class="day" width="10px" height="10px" y="72" style="fill: #d3b1ce"/></g><g transform="translate(588, 0)"><rect class="day" width="10px" height="10px" y="0" style="fill: #ccb2d4"/><rect class="day" width="10px" height="10px" y="12" style="fill: #d6bed7"/><rect class="day" width="10px" height="10px" y="24" style="fill: #eec1cb"/><rect class="day" width="10px" height="10px" y="36" style="fill: #eed0d6"/><rect class="day" width="10px" height="10px" y="48" style="fill: #eec2cc"/><rect class="day" width="10px" height="10px" y="60" style="fill: #eedbdf"/><rect class="day" width="10px" height="10px" y="72" style="fill: #eed8dd"/></g><g transform="translate(600, 0)"><rect class="day" width="10px" height="10px" y="0" style="fill: #eed0d6"/><rect class="day" width="10px" height="10px" y="12" style="fill: #eec4cd"/><rect class="day" width="10px" height="10px" y="24" style="fill: #eec2cc"/><rect class="day" width="10px" height="10px" y="36" style="fill: #eebfc9"/><rect class="day" width="10px" height="10px" y="48" style="fill: #eeb3c0"/><rect class="day" width="10px" height="10px" y="60" style="fill: #eed0d6"/><rect class="day" width="10px" height="10px" y="72" style="fill: #eed3d9"/></g><g transform="translate(612, 0)"><rect class="day" width="10px" height="10px" y="0" style="fill: #eed0d7"/><rect class="day" width="10px" height="10px" y="12" style="fill: #eec6cf"/><rect class="day" width="10px" height="10px" y="24" style="fill: #eedade"/><rect class="day" width="10px" height="10px" y="36" style="fill: #eec3cc"/><rect class="day" width="10px" height="10px" y="48" style="fill: #eebec8"/><rect class="day" width="10px" height="10px" y="60" style="fill: #eed6dc"/><rect class="day" width="10px" height="10px" y="72" style="fill: #eed2d8"/></g></svg>