<?xml version="1.0" encoding="utf-8"?>
<!DOCTYPE svg PUBLIC "-//W3C//DTD SVG 1.0//EN" "http://www.w3.org/TR/2001/REC-SVG-20010904/DTD/svg10.dtd" [
  <!ENTITY st0 "fill-rule:evenodd;clip-rule:evenodd;fill:#000000;">
  <!ENTITY st1 "fill:#000000;">
]>
<svg version="1.0" id="Layer_1" xmlns="http://www.w3.org/2000/svg" xmlns:xlink="http://www.w3.org/1999/xlink" x="0px" y="0px" width="667px" height="107px" viewBox="-10 -10 667 107" style="enable-background:new 0 0 667 107;" xml:space="preserve">
<g transform="translate(0, 0)"><rect class="day" width="10px" height="10px" y="0" style="fill: #eeeeee"/><rect class="day" width="10px" height="10px" y="12" style="fill: #eedbdf"/><rect class="day" width="10px" height="10px" y="24" style="fill: #eeccd4"/><rect class="day" width="10px" height="10px" y="36" style="fill: #eebac6"/><rect class="day" width="10px" height="10px" y="48" style="fill: #eedade"/><rect class="day" width="10px" height="10px" y="60" style="fill: #eed9de"/><rect class="day" width="10px" height="10px" y="72" style="fill: #eea4b5"/></g><g transform="translate(12, 0)"><rect class="day" width="10px" height="10px" y="0" style="fill: #eebbc6"/><rect class="day" width="10px" height="10px" y="12" style="fill: #eeb9c4"/><rect class="day" width="10px" height="10px" y="24" style="fill: #eec0ca"/><rect class="day" width="10px" height="10px" y="36" style="fill: #eec9d1"/><rect class="day" width="10px" height="10px" y="48" style="fill: #eed6dc"/><rect class="day" width="10px" height="10px" y="60" style="fill: #eed6db"/><rect class="day" width="10px" height="10px" y="72" style="fill: #eec8d0"/></g><g transform="translate(24, 0)"><rect class="day" width="10px" height="10px" y="0" style="fill: #eebfc9"/><rect class="day" width="10px" height="10px" y="12" style="fill: #eec2cc"/><rect class="day" width="10px" height="10px" y="24" style="fill: #eebac6"/><rect class="day" width="10px" height="10px" y="36" style="fill: #eed6dc"/><rect class="day" width="10px" height="10px" y="48" style="fill: #eed2d8"/><rect class="day" width="10px" height="10px" y="60" style="fill: #eed9de"/><rect class="day" width="10px" height="10px" y="72" style="fill: #eec5ce"/></g><g transform="translate(36, 0)"><rect class="day" width="10px" height="10px" y="0" style="fill: #eeccd4"/><rect class="day" width="10px" height="10px" y="12" style="fill: #eeb9c4"/><rect class="day" width="10px" height="10px" y="24" style="fill: #d9aac5"/><rect class="day" width="10px" height="10px" y="36" style="fill: #eec7d0"/><rect class="day" width="10px" height="10px" y="48" style="fill: #eed6dc"/><rect class="day" width="10px" height="10px" y="60" style="fill: #eed7dc"/><rect class="day" width="10px" height="10px" y="72" style="fill: #eebdc8"/></g><g transform="translate(48, 0)"><rect class="day" width="10px" height="10px" y="0" style="fill: #ee94a8"/><rect class="day" width="10px" height="10px" y="12" style="fill: #eecbd3"/><rect class="day" width="10px" height="10px" y="24" style="fill: #eed8dd"/><rect class="day" width="10px" height="10px" y="36" style="fill: #eed6db"/><rect class="day" width="10px" height="10px" y="48" style="fill: #eed8dd"/><rect class="day" width="10px" height="10px" y="60" style="fill: #eed6db"/><rect class="day" width="10px" height="10px" y="72" style="fill: #eebfc9"/></g><g transform="translate(60, 0)"><rect class="day" width="10px" height="10px" y="0" style="fill: #d9a0be"/><rect class="day" width="10px" height="10px" y="12" style="fill: #eea0b1"/><rect class="day" width="10px" height="10px" y="24" style="fill: #eeb6c3"/><rect class="day" width="10px" height="10px" y="36" style="fill: #eeb6c3"/><rect class="day" width="10px" height="10px" y="48" style="fill: #eed0d6"/><rect class="day" width="10px" height="10px" y="60" style="fill: #eed6dc"/><rect class="day" width="10px" height="10px" y="72" style="fill: #eec2cc"/></g><g transform="translate(72, 0)"><rect class="day" width="10px" height="10px" y="0" style="fill: #eeaab9"/><rect class="day" width="10px" height="10px" y="12" style="fill: #eeabba"/><rect class="day" width="10px" height="10px" y="24" style="fill: #eeb0be"/><rect class="day" width="10px" height="10px" y="36" style="fill: #eeaebc"/><rect class="day" width="10px" height="10px" y="48" style="fill: #eecbd2"/><rect class="day" width="10px" height="10px" y="60" style="fill: #eed5da"/><rect class="day" width="10px" height="10px" y="72" style="fill: #eec0ca"/></g><g transform="translate(84, 0)"><rect class="day" width="10px" height="10px" y="0" style="fill: #eec1cb"/><rect class="day" width="10px" height="10px" y="12" style="fill: #eeb1bf"/><rect class="day" width="10px" height="10px" y="24" style="fill: #eebdc8"/><rect class="day" width="10px" height="10px" y="36" style="fill: #eeb3c0"/><rect class="day" width="10px" height="10px" y="48" style="fill: #eecdd4"/><rect class="day" width="10px" height="10px" y="60" style="fill: #eedbdf"/><rect class="day" width="10px" height="10px" y="72" style="fill: #eebbc6"/></g><g transform="translate(96, 0)"><rect class="day" width="10px" height="10px" y="0" style="fill: #eebac5"/><rect class="day" width="10px" height="10px" y="12" style="fill: #eeaebc"/><rect class="day" width="10px" height="10px" y="24" style="fill: #d7a4c2"/><rect class="day" width="10px" height="10px" y="36" style="fill: #d89fbd"/><rect class="day" width="10px" height="10px" y="48" style="fill: #eed0d7"/><rect class="day" width="10px" height="10px" y="60" style="fill: #eed9de"/><rect class="day" width="10px" height="10px" y="72" style="fill: #eeb7c3"/></g><g transform="translate(108, 0)"><rect class="day" width="10px" height="10px" y="0" style="fill: #da99b7"/><rect class="day" width="10px" height="10px" y="12" style="fill: #eeabba"/><rect class="day" width="10px" height="10px" y="24" style="fill: #eec6cf"/><rect class="day" width="10px" height="10px" y="36" style="fill: #d893b4"/><rect class="day" width="10px" height="10px" y="48" style="fill: #eed6dc"/><rect class="day" width="10px" height="10px" y="60" style="fill: #eed6dc"/><rect class="day" width="10px" height="10px" y="72" style="fill: #dab8d0"/></g><g transform="translate(120, 0)"><rect class="day" width="10px" height="10px" y="0" style="fill: #eea8b7"/><rect class="day" width="10px" height="10px" y="12" style="fill: #eebdc8"/><rect class="day" width="10px" height="10px" y="24" style="fill: #eeb3c0"/><rect class="day" width="10px" height="10px" y="36" style="fill: #eea7b7"/><rect class="day" width="10px" height="10px" y="48" style="fill: #eed9de"/><rect class="day" width="10px" height="10px" y="60" style="fill: #eedade"/><rect class="day" width="10px" height="10px" y="72" style="fill: #eeafbd"/></g><g transform="translate(132, 0)"><rect class="day" width="10px" height="10px" y="0" style="fill: #dba8c3"/><rect class="day" width="10px" height="10px" y="12" style="fill: #daa0bd"/><rect class="day" width="10px" height="10px" y="24" style="fill: #d6b2cd"/><rect class="day" width="10px" height="10px" y="36" style="fill: #db9dba"/><rect class="day" width="10px" height="10px" y="48" style="fill: #eed8dd"/><rect class="day" width="10px" height="10px" y="60" style="fill: #eedade"/><rect class="day" width="10px" height="10px" y="72" style="fill: #dbb8cf"/></g><g transform="translate(144, 0)"><rect class="day" width="10px" height="10px" y="0" style="fill: #d8b7d0"/><rect class="day" width="10px" height="10px" y="12" style="fill: #dab1ca"/><rect class="day" width="10px" height="10px" y="24" style="fill: #d8b5ce"/><rect class="day" width="10px" height="10px" y="36" style="fill: #d6b4cf"/><rect class="day" width="10px" height="10px" y="48" style="fill: #eed8dd"/><rect class="day" width="10px" height="10px" y="60" style="fill: #eeeeee"/><rect class="day" width="10px" height="10px" y="72" style="fill: #dbc3d8"/></g><g transform="translate(156, 0)"><rect class="day" width="10px" height="10px" y="0" style="fill: #d9aac6"/><rect class="day" width="10px" height="10px" y="12" style="fill: #dbb5cd"/><rect class="day" width="10px" height="10px" y="24" style="fill: #d9b2cc"/><rect class="day" width="10px" height="10px" y="36" style="fill: #d5a4c3"/><rect class="day" width="10px" height="10px" y="48" style="fill: #eed6dc"/><rect class="day" width="10px" height="10px" y="60" style="fill: #eeeeee"/><rect class="day" width="10px" height="10px" y="72" style="fill: #d9bbd2"/></g><g transform="translate(168, 0)"><rect class="day" width="10px" height="10px" y="0" style="fill: #d9b1cb"/><rect class="day" width="10px" height="10px" y="12" style="fill: #d6b0cc"/><rect class="day" width="10px" height="10px" y="24" style="fill: #d4bad5"/><rect class="day" width="10px" height="10px" y="36" style="fill: #dabfd6"/><rect class="day" width="10px" height="10px" y="48" style="fill: #eeeeee"/><rect class="day" width="10px" height="10px" y="60" style="fill: #eeeeee"/><rect class="day" width="10px" height="10px" y="72" style="fill: #d8b1cc"/></g><g transform="translate(180, 0)"><rect class="day" width="10px" height="10px" y="0" style="fill: #d889ac"/><rect class="day" width="10px" height="10px" y="12" style="fill: #d5a9c7"/><rect class="day" width="10px" height="10px" y="24" style="fill: #cd81ad"/><rect class="day" width="10px" height="10px" y="36" style="fill: #daa3bf"/><rect class="day" width="10px" height="10px" y="48" style="fill: #dbcbde"/><rect class="day" width="10px" height="10px" y="60" style="fill: #dadeee"/><rect class="day" width="10px" height="10px" y="72" style="fill: #d7b8d2"/></g><g transform="translate(192, 0)"><rect class="day" width="10px" height="10px" y="0" style="fill: #d4a7c6"/><rect class="day" width="10px" height="10px" y="12" style="fill: #d8acc7"/><rect class="day" width="10px" height="10px" y="24" style="fill: #d99ab9"/><rect class="day" width="10px" height="10px" y="36" style="fill: #d8b1cb"/><rect class="day" width="10px" height="10px" y="48" style="fill: #eeeeee"/><rect class="day" width="10px" height="10px" y="60" style="fill: #eeeeee"/><rect class="day" width="10px" height="10px" y="72" style="fill: #dab8d0"/></g><g transform="translate(204, 0)"><rect class="day" width="10px" height="10px" y="0" style="fill: #d7a9c6"/><rect class="day" width="10px" height="10px" y="12" style="fill: #d6acc8"/><rect class="day" width="10px" height="10px" y="24" style="fill: #eed6dc"/><rect class="day" width="10px" height="10px" y="36" style="fill: #d8a7c4"/><rect class="day" width="10px" height="10px" y="48" style="fill: #eeeeee"/><rect class="day" width="10px" height="10px" y="60" style="fill: #eeeeee"/><rect class="day" width="10px" height="10px" y="72" style="fill: #eeeeee"/></g><g transform="translate(216, 0)"><rect class="day" width="10px" height="10px" y="0" style="fill: #eed5da"/><rect class="day" width="10px" height="10px" y="12" style="fill: #d6b4cf"/><rect class="day" width="10px" height="10px" y="24" style="fill: #d8acc8"/><rect class="day" width="10px" height="10px" y="36" style="fill: #dba2bf"/><rect class="day" width="10px" height="10px" y="48" style="fill: #eed2d8"/><rect class="day" width="10px" height="10px" y="60" style="fill: #eeeeee"/><rect class="day" width="10px" height="10px" y="72" style="fill: #d8b5ce"/></g><g transform="translate(228, 0)"><rect class="day" width="10px" height="10px" y="0" style="fill: #d7aeca"/><rect class="day" width="10px" height="10px" y="12" style="fill: #d7b2cd"/><rect class="day" width="10px" height="10px" y="24" style="fill: #cf97bd"/><rect class="day" width="10px" height="10px" y="36" style="fill: #d1a4c5"/><rect class="day" width="10px" height="10px" y="48" style="fill: #d5daee"/><rect class="day" width="10px" height="10px" y="60" style="fill: #d8cadf"/><rect class="day" width="10px" height="10px" y="72" style="fill: #d0a4c6"/></g><g transform="translate(240, 0)"><rect class="day" width="10px" height="10px" y="0" style="fill: #d9afc9"/><rect class="day" width="10px" height="10px" y="12" style="fill: #d2adcc"/><rect class="day" width="10px" height="10px" y="24" style="fill: #d8bdd5"/><rect class="day" width="10px" height="10px" y="36" style="fill: #d9adc8"/><rect class="day" width="10px" height="10px" y="48" style="fill: #d4c4dd"/><rect class="day" width="10px" height="10px" y="60" style="fill: #dadeee"/><rect class="day" width="10px" height="10px" y="72" style="fill: #d9afc9"/></g><g transform="translate(252, 0)"><rect class="day" width="10px" height="10px" y="0" style="fill: #eeccd4"/><rect class="day" width="10px" height="10px" y="12" style="fill: #eed0d7"/><rect class="day" width="10px" height="10px" y="24" style="fill: #dbb6ce"/><rect class="day" width="10px" height="10px" y="36" style="fill: #eecbd3"/><rect class="day" width="10px" height="10px" y="48" style="fill: #eed5da"/><rect class="day" width="10px" height="10px" y="60" style="fill: #dbcade"/><rect class="day" width="10px" height="10px" y="72" style="fill: #dbbfd5"/></g><g transform="translate(264, 0)"><rect class="day" width="10px" height="10px" y="0" style="fill: #d6c3db"/><rect class="day" width="10px" height="10px" y="12" style="fill: #d9deee"/><rect class="day" width="10px" height="10px" y="24" style="fill: #dadeee"/><rect class="day" width="10px" height="10px" y="36" style="fill: #eeeeee"/><rect class="day" width="10px" height="10px" y="48" style="fill: #dbdfee"/><rect class="day" width="10px" height="10px" y="60" style="fill: #d2d8ee"/><rect class="day" width="10px" height="10px" y="72" style="fill: #d8cadf"/></g><g transform="translate(276, 0)"><rect class="day" width="10px" height="10px" y="0" style="fill: #d6dbee"/><rect class="day" width="10px" height="10px" y="12" style="fill: #d6dcee"/><rect class="day" width="10px" height="10px" y="24" style="fill: #d8cadf"/><rect class="day" width="10px" height="10px" y="36" style="fill: #eeeeee"/><rect class="day" width="10px" height="10px" y="48" style="fill: #eeeeee"/><rect class="day" width="10px" height="10px" y="60" style="fill: #eed9de"/><rect class="day" width="10px" height="10px" y="72" style="fill: #eed6dc"/></g><g transform="translate(288, 0)"><rect class="day" width="10px" height="10px" y="0" style="fill: #dbc7db"/><rect class="day" width="10px" height="10px" y="12" style="fill: #eed8dd"/><rect class="day" width="10px" height="10px" y="24" style="fill: #dbc4d9"/><rect class="day" width="10px" height="10px" y="36" style="fill: #eeeeee"/><rect class="day" width="10px" height="10px" y="48" style="fill: #eedade"/><rect class="day" width="10px" height="10px" y="60" style="fill: #eeeeee"/><rect class="day" width="10px" height="10px" y="72" style="fill: #dbccdf"/></g><g transform="translate(300, 0)"><rect class="day" width="10px" height="10px" y="0" style="fill: #dbcbde"/><rect class="day" width="10px" height="10px" y="12" style="fill: #eedbdf"/><rect class="day" width="10px" height="10px" y="24" style="fill: #eeeeee"/><rect class="day" width="10px" height="10px" y="36" style="fill: #eeeeee"/><rect class="day" width="10px" height="10px" y="48" style="fill: #eeeeee"/><rect class="day" width="10px" height="10px" y="60" style="fill: #eeeeee"/><rect class="day" width="10px" height="10px" y="72" style="fill: #dadeee"/></g><g transform="translate(312, 0)"><rect class="day" width="10px" height="10px" y="0" style="fill: #eeeeee"/><rect class="day" width="10px" height="10px" y="12" style="fill: #dadeee"/><rect class="day" width="10px" height="10px" y="24" style="fill: #eeeeee"/><rect class="day" width="10px" height="10px" y="36" style="fill: #eeeeee"/><rect class="day" width="10px" height="10px" y="48" style="fill: #eeeeee"/><rect class="day" width="10px" height="10px" y="60" style="fill: #eeeeee"/><rect class="day" width="10px" height="10px" y="72" style="fill: #dadeee"/></g><g transform="translate(324, 0)"><rect class="day" width="10px" height="10px" y="0" style="fill: #d7dcee"/><rect class="day" width="10px" height="10px" y="12" style="fill: #eeeeee"/><rect class="day" width="10px" height="10px" y="24" style="fill: #dbdfee"/><rect class="day" width="10px" height="10px" y="36" style="fill: #eeeeee"/><rect class="day" width="10px" height="10px" y="48" style="fill: #eeeeee"/><rect class="day" width="10px" height="10px" y="60" style="fill: #eeeeee"/><rect class="day" width="10px" height="10px" y="72" style="fill: #eeeeee"/></g><g transform="translate(336, 0)"><rect class="day" width="10px" height="10px" y="0" style="fill: #eeeeee"/><rect class="day" width="10px" height="10px" y="12" style="fill: #eedade"/><rect class="day" width="10px" height="10px" y="24" style="fill: #eeeeee"/><rect class="day" width="10px" height="10px" y="36" style="fill: #eeeeee"/><rect class="day" width="10px" height="10px" y="48" style="fill: #eeeeee"/><rect class="day" width="10px" height="10px" y="60" style="fill: #eeeeee"/><rect class="day" width="10px" height="10px" y="72" style="fill: #eeeeee"/></g><g transform="translate(348, 0)"><rect class="day" width="10px" height="10px" y="0" style="fill: #eeeeee"/><rect class="day" width="10px" height="10px" y="12" style="fill: #eed2d8"/><rect class="day" width="10px" height="10px" y="24" style="fill: #eedbdf"/><rect class="day" width="10px" height="10px" y="36" style="fill: #eeeeee"/><rect class="day" width="10px" height="10px" y="48" style="fill: #eeeeee"/><rect class="day" width="10px" height="10px" y="60" style="fill: #eedbdf"/><rect class="day" width="10px" height="10px" y="72" style="fill: #eed6dc"/></g><g transform="translate(360, 0)"><rect class="day" width="10px" height="10px" y="0" style="fill: #eedade"/><rect class="day" width="10px" height="10px" y="12" style="fill: #eedade"/><rect class="day" width="10px" height="10px" y="24" style="fill: #eed8dd"/><rect class="day" width="10px" height="10px" y="36" style="fill: #eedade"/><rect class="day" width="10px" height="10px" y="48" style="fill: #eeeeee"/><rect class="day" width="10px" height="10px" y="60" style="fill: #eed1d8"/><rect class="day" width="10px" height="10px" y="72" style="fill: #eeeeee"/></g><g transform="translate(372, 0)"><rect class="day" width="10px" height="10px" y="0" style="fill: #eed6dc"/><rect class="day" width="10px" height="10px" y="12" style="fill: #eeeeee"/><rect class="day" width="10px" height="10px" y="24" style="fill: #eedade"/><rect class="day" width="10px" height="10px" y="36" style="fill: #eed6db"/><rect class="day" width="10px" height="10px" y="48" style="fill: #eeeeee"/><rect class="day" width="10px" height="10px" y="60" style="fill: #eeeeee"/><rect class="day" width="10px" height="10px" y="72" style="fill: #eed7dc"/></g><g transform="translate(384, 0)"><rect class="day" width="10px" height="10px" y="0" style="fill: #eed8dd"/><rect class="day" width="10px" height="10px" y="12" style="fill: #eed7dc"/><rect class="day" width="10px" height="10px" y="24" style="fill: #eed4da"/><rect class="day" width="10px" height="10px" y="36" style="fill: #eedbdf"/><rect class="day" width="10px" height="10px" y="48" style="fill: #dbdfee"/><rect class="day" width="10px" height="10px" y="60" style="fill: #eeeeee"/><rect class="day" width="10px" height="10px" y="72" style="fill: #eed4da"/></g><g transform="translate(396, 0)"><rect class="day" width="10px" height="10px" y="0" style="fill: #d6bfd8"/><rect class="day" width="10px" height="10px" y="12" style="fill: #d4c5de"/><rect class="day" width="10px" height="10px" y="24" style="fill: #d6dcee"/><rect class="day" width="10px" height="10px" y="36" style="fill: #dadeee"/><rect class="day" width="10px" height="10px" y="48" style="fill: #eeeeee"/><rect class="day" width="10px" height="10px" y="60" style="fill: #eeeeee"/><rect class="day" width="10px" height="10px" y="72" style="fill: #eeeeee"/></g><g transform="translate(408, 0)"><rect class="day" width="10px" height="10px" y="0" style="fill: #eeeeee"/><rect class="day" width="10px" height="10px" y="12" style="fill: #eeeeee"/><rect class="day" width="10px" height="10px" y="24" style="fill: #eeeeee"/><rect class="day" width="10px" height="10px" y="36" style="fill: #eeeeee"/><rect class="day" width="10px" height="10px" y="48" style="fill: #dadeee"/><rect class="day" width="10px" height="10px" y="60" style="fill: #dbdfee"/><rect class="day" width="10px" height="10px" y="72" style="fill: #eeeeee"/></g><g transform="translate(420, 0)"><rect class="day" width="10px" height="10px" y="0" style="fill: #eeeeee"/><rect class="day" width="10px" height="10px" y="12" style="fill: #d6dcee"/><rect class="day" width="10px" height="10px" y="24" style="fill: #dbdfee"/><rect class="day" width="10px" height="10px" y="36" style="fill: #d6dcee"/><rect class="day" width="10px" height="10px" y="48" style="fill: #eeeeee"/><rect class="day" width="10px" height="10px" y="60" style="fill: #d1c5df"/><rect class="day" width="10px" height="10px" y="72" style="fill: #dadeee"/></g><g transform="translate(432, 0)"><rect class="day" width="10px" height="10px" y="0" style="fill: #eeeeee"/><rect class="day" width="10px" height="10px" y="12" style="fill: #eeeeee"/><rect class="day" width="10px" height="10px" y="24" style="fill: #eeeeee"/><rect class="day" width="10px" height="10px" y="36" style="fill: #eeeeee"/><rect class="day" width="10px" height="10px" y="48" style="fill: #eeeeee"/><rect class="day" width="10px" height="10px" y="60" style="fill: #d8ddee"/><rect class="day" width="10px" height="10px" y="72" style="fill: #eeeeee"/></g><g transform="translate(444, 0)"><rect class="day" width="10px" height="10px" y="0" style="fill: #d9deee"/><rect class="day" width="10px" height="10px" y="12" style="fill: #d9deee"/><rect class="day" width="10px" height="10px" y="24" style="fill: #d6c7de"/><rect class="day" width="10px" height="10px" y="36" style="fill: #dbdfee"/><rect class="day" width="10px" height="10px" y="48" style="fill: #d6dcee"/><rect class="day" width="10px" height="10px" y="60" style="fill: #dbdfee"/><rect class="day" width="10px" height="10px" y="72" style="fill: #dbc8dc"/></g><g transform="translate(456, 0)"><rect class="day" width="10px" height="10px" y="0" style="fill: #d9c9de"/><rect class="day" width="10px" height="10px" y="12" style="fill: #dadeee"/><rect class="day" width="10px" height="10px" y="24" style="fill: #d9deee"/><rect class="day" width="10px" height="10px" y="36" style="fill: #eeeeee"/><rect class="day" width="10px" height="10px" y="48" style="fill: #d5daee"/><rect class="day" width="10px" height="10px" y="60" style="fill: #c8d0ee"/><rect class="day" width="10px" height="10px" y="72" style="fill: #d9cade"/></g><g transform="translate(468, 0)"><rect class="day" width="10px" height="10px" y="0" style="fill: #eed9de"/><rect class="day" width="10px" height="10px" y="12" style="fill: #dbdfee"/><rect class="day" width="10px" height="10px" y="24" style="fill: #eeeeee"/><rect class="day" width="10px" height="10px" y="36" style="fill: #eeeeee"/><rect class="day" width="10px" height="10px" y="48" style="fill: #eeeeee"/><rect class="day" width="10px" height="10px" y="60" style="fill: #dadeee"/><rect class="day" width="10px" height="10px" y="72" style="fill: #dadeee"/></g><g transform="translate(480, 0)"><rect class="day" width="10px" height="10px" y="0" style="fill: #eeeeee"/><rect class="day" width="10px" height="10px" y="12" style="fill: #eeeeee"/><rect class="day" width="10px" height="10px" y="24" style="fill: #eeeeee"/><rect class="day" width="10px" height="10px" y="36" style="fill: #eeeeee"/><rect class="day" width="10px" height="10px" y="48" style="fill: #eeeeee"/><rect class="day" width="10px" height="10px" y="60" style="fill: #eecfd6"/><rect class="day" width="10px" height="10px" y="72" style="fill: #eeeeee"/></g><g transform="translate(492, 0)"><rect class="day" width="10px" height="10px" y="0" style="fill: #eeeeee"/><rect class="day" width="10px" height="10px" y="12" style="fill: #eeeeee"/><rect class="day" width="10px" height="10px" y="24" style="fill: #eeeeee"/><rect class="day" width="10px" height="10px" y="36" style="fill: #eeeeee"/><rect class="day" width="10px" height="10px" y="48" style="fill: #eeeeee"/><rect class="day" width="10px" height="10px" y="60" style="fill: #eedade"/><rect class="day" width="10px" height="10px" y="72" style="fill: #eedbdf"/></g><g transform="translate(504, 0)"><rect class="day" width="10px" height="10px" y="0" style="fill: #eeeeee"/><rect class="day" width="10px" height="10px" y="12" style="fill: #eeeeee"/><rect class="day" width="10px" height="10px" y="24" style="fill: #eeeeee"/><rect class="day" width="10px" height="10px" y="36" style="fill: #eeeeee"/><rect class="day" width="10px" height="10px" y="48" style="fill: #eeeeee"/><rect class="day" width="10px" height="10px" y="60" style="fill: #eeeeee"/><rect class="day" width="10px" height="10px" y="72" style="fill: #eeeeee"/></g><g transform="translate(516, 0)"><rect class="day" width="10px" height="10px" y="0" style="fill: #eeeeee"/><rect class="day" width="10px" height="10px" y="12" style="fill: #eedbdf"/><rect class="day" width="10px" height="10px" y="24" style="fill: #eeeeee"/><rect class="day" width="10px" height="10px" y="36" style="fill: #eeeeee"/><rect class="day" width="10px" height="10px" y="48" style="fill: #eeeeee"/><rect class="day" width="10px" height="10px" y="60" style="fill: #eeeeee"/><rect class="day" width="10px" height="10px" y="72" style="fill: #eeeeee"/></g><g transform="translate(528, 0)"><rect class="day" width="10px" height="10px" y="0" style="fill: #eeeeee"/><rect class="day" width="10px" height="10px" y="12" style="fill: #eeeeee"/><rect class="day" width="10px" height="10px" y="24" style="fill: #eeeeee"/><rect class="day" width="10px" height="10px" y="36" style="fill: #eeeeee"/><rect class="day" width="10px" height="10px" y="48" style="fill: #eeeeee"/><rect class="day" width="10px" height="10px" y="60" style="fill: #eeeeee"/><rect class="day" width="10px" height="10px" y="72" style="fill: #eeeeee"/></g><g transform="translate(540, 0)"><rect class="day" width="10px" height="10px" y="0" style="fill: #eed7dc"/><rect class="day" width="10px" height="10px" y="12" style="fill: #eeeeee"/><rect class="day" width="10px" height="10px" y="24" style="fill: #eeeeee"/><rect class="day" width="10px" height="10px" y="36" style="fill: #eeeeee"/><rect class="day" width="10px" height="10px" y="48" style="fill: #eeeeee"/><rect class="day" width="10px" height="10px" y="60" style="fill: #eeeeee"/><rect class="day" width="10px" height="10px" y="72" style="fill: #eed8dd"/></g><g transform="translate(552, 0)"><rect class="day" width="10px" height="10px" y="0" style="fill: #eedbdf"/><rect class="day" width="10px" height="10px" y="12" style="fill: #eeeeee"/><rect class="day" width="10px" height="10px" y="24" style="fill: #eeeeee"/><rect class="day" width="10px" height="10px" y="36" style="fill: #eeeeee"/><rect class="day" width="10px" height="10px" y="48" style="fill: #eeeeee"/><rect class="day" width="10px" height="10px" y="60" style="fill: #eeeeee"/><rect class="day" width="10px" height="10px" y="72" style="fill: #eeeeee"/></g><g transform="translate(564, 0)"><rect class="day" width="10px" height="10px" y="0" style="fill: #eed8dd"/><rect class="day" width="10px" height="10px" y="12" style="fill: #eeeeee"/><rect class="day" width="10px" height="10px" y="24" style="fill: #eeeeee"/><rect class="day" width="10px" height="10px" y="36" style="fill: #eeeeee"/><rect class="day" width="10px" height="10px" y="48" style="fill: #dadeee"/><rect class="day" width="10px" height="10px" y="60" style="fill: #eeeeee"/><rect class="day" width="10px" height="10px" y="72" style="fill: #eeeeee"/></g><g transform="translate(576, 0)"><rect class="day" width="10px" height="10px" y="0" style="fill: #eeeeee"/><rect class="day" width="10px" height="10px" y="12" style="fill: #eeeeee"/><rect class="day" width="10px" height="10px" y="24" style="fill: #eedbdf"/><rect class="day" width="10px" height="10px" y="36" style="fill: #eedbdf"/><rect class="day" width="10px" height="10px" y="48" style="fill: #eeeeee"/><rect class="day" width="10px" height="10px" y="60" style="fill: #eeeeee"/><rect class="day" width="10px" height="10px" y="72" style="fill: #dbdfee"/></g><g transform="translate(588, 0)"><rect class="day" width="10px" height="10px" y="0" style="fill: #eeeeee"/><rect class="day" width="10px" height="10px" y="12" style="fill: #eeeeee"/><rect class="day" width="10px" height="10px" y="24" style="fill: #eeeeee"/><rect class="day" width="10px" height="10px" y="36" style="fill: #eeeeee"/><rect class="day" width="10px" height="10px" y="48" style="fill: #dbdfee"/><rect class="day" width="10px" height="10px" y="60" style="fill: #d6dbee"/><rect class="day" width="10px" height="10px" y="72" style="fill: #eeeeee"/></g><g transform="translate(600, 0)"><rect class="day" width="10px" height="10px" y="0" style="fill: #eed9de"/><rect class="day" width="10px" height="10px" y="12" style="fill: #eed0d7"/><rect class="day" width="10px" height="10px" y="24" style="fill: #eed9de"/><rect class="day" width="10px" height="10px" y="36" style="fill: #eeeeee"/><rect class="day" width="10px" height="10px" y="48" style="fill: #eeeeee"/><rect class="day" width="10px" height="10px" y="60" style="fill: #eeeeee"/><rect class="day" width="10px" height="10px" y="72" style="fill: #eeeeee"/></g><g transform="translate(612, 0)"><rect class="day" width="10px" height="10px" y="0" style="fill: #eeeeee"/><rect class="day" width="10px" height="10px" y="12" style="fill: #dbdfee"/><rect class="day" width="10px" height="10px" y="24" style="fill: #eeeeee"/><rect class="day" width="10px" height="10px" y="36" style="fill: #eedbdf"/><rect class="day" width="10px" height="10px" y="48" style="fill: #dac6db"/><rect class="day" width="10px" height="10px" y="60" style="fill: #dbdfee"/><rect class="day" width="10px" height="10px" y="72" style="fill: #eed9de"/></g></svg>