<?xml version="1.0" encoding="utf-8"?>
<!DOCTYPE svg PUBLIC "-//W3C//DTD SVG 1.0//EN" "http://www.w3.org/TR/2001/REC-SVG-20010904/DTD/svg10.dtd" [
  <!ENTITY st0 "fill-rule:evenodd;clip-rule:evenodd;fill:#000000;">
  <!ENTITY st1 "fill:#000000;">
]>
<svg version="1.0" id="Layer_1" xmlns="http://www.w3.org/2000/svg" xmlns:xlink="http://www.w3.org/1999/xlink" x="0px" y="0px" width="667px" height="107px" viewBox="-10 -10 667 107" style="enable-background:new 0 0 667 107;" xml:space="preserve">
<g transform="translate(0, 0)"><rect class="day" width="10px" height="10px" y="0" style="fill: #eeeeee"/><rect class="day" width="10px" height="10px" y="12" style="fill: #d8c7dc"/><rect class="day" width="10px" height="10px" y="24" style="fill: #eed5da"/><rect class="day" width="10px" height="10px" y="36" style="fill: #eeeeee"/><rect class="day" width="10px" height="10px" y="48" style="fill: #dac7dc"/><rect class="day" width="10px" height="10px" y="60" style="fill: #eedbdf"/><rect class="day" width="10px" height="10px" y="72" style="fill: #eeeeee"/></g><g transform="translate(12, 0)"><rect class="day" width="10px" height="10px" y="0" style="fill: #eeeeee"/><rect class="day" width="10px" height="10px" y="12" style="fill: #dbdfee"/><rect class="day" width="10px" height="10px" y="24" style="fill: #eeeeee"/><rect class="day" width="10px" height="10px" y="36" style="fill: #eeeeee"/><rect class="day" width="10px" height="10px" y="48" style="fill: #eeeeee"/><rect class="day" width="10px" height="10px" y="60" style="fill: #dadeee"/><rect class="day" width="10px" height="10px" y="72" style="fill: #d7dcee"/></g><g transform="translate(24, 0)"><rect class="day" width="10px" height="10px" y="0" style="fill: #d9c8dd"/><rect class="day" width="10px" height="10px" y="12" style="fill: #eed9de"/><rect class="day" width="10px" height="10px" y="24" style="fill: #eedbdf"/><rect class="day" width="10px" height="10px" y="36" style="fill: #dadeee"/><rect class="day" width="10px" height="10px" y="48" style="fill: #dacbdf"/><rect class="day" width="10px" height="10px" y="60" style="fill: #eeeeee"/><rect class="day" width="10px" height="10px" y="72" style="fill: #eeeeee"/></g><g transform="translate(36, 0)"><rect class="day" width="10px" height="10px" y="0" style="fill: #dbdfee"/><rect class="day" width="10px" height="10px" y="12" style="fill: #eeeeee"/><rect class="day" width="10px" height="10px" y="24" style="fill: #eeeeee"/><rect class="day" width="10px" height="10px" y="36" style="fill: #eeeeee"/><rect class="day" width="10px" height="10px" y="48" style="fill: #d0d6ee"/><rect class="day" width="10px" height="10px" y="60" style="fill: #eeeeee"/><rect class="day" width="10px" height="10px" y="72" style="fill: #eeeeee"/></g><g transform="translate(48, 0)"><rect class="day" width="10px" height="10px" y="0" style="fill: #eeeeee"/><rect class="day" width="10px" height="10px" y="12" style="fill: #eedbdf"/><rect class="day" width="10px" height="10px" y="24" style="fill: #eeeeee"/><rect class="day" width="10px" height="10px" y="36" style="fill: #eeeeee"/><rect class="day" width="10px" height="10px" y="48" style="fill: #eed9de"/><rect class="day" width="10px" height="10px" y="60" style="fill: #eeeeee"/><rect class="day" width="10px" height="10px" y="72" style="fill: #eeeeee"/></g><g transform="translate(60, 0)"><rect class="day" width="10px" height="10px" y="0" style="fill: #eed9de"/><rect class="day" width="10px" height="10px" y="12" style="fill: #eeeeee"/><rect class="day" width="10px" height="10px" y="24" style="fill: #d6c3da"/><rect class="day" width="10px" height="10px" y="36" style="fill: #eeeeee"/><rect class="day" width="10px" height="10px" y="48" style="fill: #d7dcee"/><rect class="day" width="10px" height="10px" y="60" style="fill: #eeeeee"/><rect class="day" width="10px" height="10px" y="72" style="fill: #d9deee"/></g><g transform="translate(72, 0)"><rect class="day" width="10px" height="10px" y="0" style="fill: #d9deee"/><rect class="day" width="10px" height="10px" y="12" style="fill: #d7dcee"/><rect class="day" width="10px" height="10px" y="24" style="fill: #dbdfee"/><rect class="day" width="10px" height="10px" y="36" style="fill: #d9deee"/><rect class="day" width="10px" height="10px" y="48" style="fill: #d8ddee"/><rect class="day" width="10px" height="10px" y="60" style="fill: #eeeeee"/><rect class="day" width="10px" height="10px" y="72" style="fill: #d6dcee"/></g><g transform="translate(84, 0)"><rect class="day" width="10px" height="10px" y="0" style="fill: #eeeeee"/><rect class="day" width="10px" height="10px" y="12" style="fill: #eeeeee"/><rect class="day" width="10px" height="10px" y="24" style="fill: #eeeeee"/><rect class="day" width="10px" height="10px" y="36" style="fill: #eeeeee"/><rect class="day" width="10px" height="10px" y="48" style="fill: #eeeeee"/><rect class="day" width="10px" height="10px" y="60" style="fill: #eeeeee"/><rect class="day" width="10px" height="10px" y="72" style="fill: #eeeeee"/></g><g transform="translate(96, 0)"><rect class="day" width="10px" height="10px" y="0" style="fill: #eeeeee"/><rect class="day" width="10px" height="10px" y="12" style="fill: #eeeeee"/><rect class="day" width="10px" height="10px" y="24" style="fill: #eeeeee"/><rect class="day" width="10px" height="10px" y="36" style="fill: #dadeee"/><rect class="day" width="10px" height="10px" y="48" style="fill: #d4daee"/><rect class="day" width="10px" height="10px" y="60" style="fill: #eeeeee"/><rect class="day" width="10px" height="10px" y="72" style="fill: #eeeeee"/></g><g transform="translate(108, 0)"><rect class="day" width="10px" height="10px" y="0" style="fill: #eedade"/><rect class="day" width="10px" height="10px" y="12" style="fill: #dadeee"/><rect class="day" width="10px" height="10px" y="24" style="fill: #d3d9ee"/><rect class="day" width="10px" height="10px" y="36" style="fill: #dbdfee"/><rect class="day" width="10px" height="10px" y="48" style="fill: #d5daee"/><rect class="day" width="10px" height="10px" y="60" style="fill: #eeeeee"/><rect class="day" width="10px" height="10px" y="72" style="fill: #eeeeee"/></g><g transform="translate(120, 0)"><rect class="day" width="10px" height="10px" y="0" style="fill: #eeeeee"/><rect class="day" width="10px" height="10px" y="12" style="fill: #eeeeee"/><rect class="day" width="10px" height="10px" y="24" style="fill: #eeeeee"/><rect class="day" width="10px" height="10px" y="36" style="fill: #eedbdf"/><rect class="day" width="10px" height="10px" y="48" style="fill: #dbdfee"/><rect class="day" width="10px" height="10px" y="60" style="fill: #dbdfee"/><rect class="day" width="10px" height="10px" y="72" style="fill: #dadeee"/></g><g transform="translate(132, 0)"><rect class="day" width="10px" height="10px" y="0" style="fill: #d9deee"/><rect class="day" width="10px" height="10px" y="12" style="fill: #d6dcee"/><rect class="day" width="10px" height="10px" y="24" style="fill: #eeeeee"/><rect class="day" width="10px" height="10px" y="36" style="fill: #eeeeee"/><rect class="day" width="10px" height="10px" y="48" style="fill: #dadeee"/><rect class="day" width="10px" height="10px" y="60" style="fill: #dadeee"/><rect class="day" width="10px" height="10px" y="72" style="fill: #eeeeee"/></g><g transform="translate(144, 0)"><rect class="day" width="10px" height="10px" y="0" style="fill: #eeeeee"/><rect class="day" width="10px" height="10px" y="12" style="fill: #eeeeee"/><rect class="day" width="10px" height="10px" y="24" style="fill: #dadeee"/><rect class="day" width="10px" height="10px" y="36" style="fill: #eeeeee"/><rect class="day" width="10px" height="10px" y="48" style="fill: #eeeeee"/><rect class="day" width="10px" height="10px" y="60" style="fill: #dbdfee"/><rect class="day" width="10px" height="10px" y="72" style="fill: #eeeeee"/></g><g transform="translate(156, 0)"><rect class="day" width="10px" height="10px" y="0" style="fill: #dadeee"/><rect class="day" width="10px" height="10px" y="12" style="fill: #d6dcee"/><rect class="day" width="10px" height="10px" y="24" style="fill: #eeeeee"/><rect class="day" width="10px" height="10px" y="36" style="fill: #cabfdf"/><rect class="day" width="10px" height="10px" y="48" style="fill: #dadeee"/><rect class="day" width="10px" height="10px" y="60" style="fill: #d8ddee"/><rect class="day" width="10px" height="10px" y="72" style="fill: #dadeee"/></g><g transform="translate(168, 0)"><rect class="day" width="10px" height="10px" y="0" style="fill: #eed5da"/><rect class="day" width="10px" height="10px" y="12" style="fill: #eeeeee"/><rect class="day" width="10px" height="10px" y="24" style="fill: #eeeeee"/><rect class="day" width="10px" height="10px" y="36" style="fill: #eeeeee"/><rect class="day" width="10px" height="10px" y="48" style="fill: #dadeee"/><rect class="day" width="10px" height="10px" y="60" style="fill: #eeeeee"/><rect class="day" width="10px" height="10px" y="72" style="fill: #d6dcee"/></g><g transform="translate(180, 0)"><rect class="day" width="10px" height="10px" y="0" style="fill: #dadeee"/><rect class="day" width="10px" height="10px" y="12" style="fill: #eeeeee"/><rect class="day" width="10px" height="10px" y="24" style="fill: #eeeeee"/><rect class="day" width="10px" height="10px" y="36" style="fill: #eeeeee"/><rect class="day" width="10px" height="10px" y="48" style="fill: #d5daee"/><rect class="day" width="10px" height="10px" y="60" style="fill: #dbdfee"/><rect class="day" width="10px" height="10px" y="72" style="fill: #eeeeee"/></g><g transform="translate(192, 0)"><rect class="day" width="10px" height="10px" y="0" style="fill: #d5daee"/><rect class="day" width="10px" height="10px" y="12" style="fill: #dbdfee"/><rect class="day" width="10px" height="10px" y="24" style="fill: #eeeeee"/><rect class="day" width="10px" height="10px" y="36" style="fill: #eeeeee"/><rect class="day" width="10px" height="10px" y="48" style="fill: #eeeeee"/><rect class="day" width="10px" height="10px" y="60" style="fill: #eeeeee"/><rect class="day" width="10px" height="10px" y="72" style="fill: #eedbdf"/></g><g transform="translate(204, 0)"><rect class="day" width="10px" height="10px" y="0" style="fill: #dbdfee"/><rect class="day" width="10px" height="10px" y="12" style="fill: #d7dcee"/><rect class="day" width="10px" height="10px" y="24" style="fill: #eeeeee"/><rect class="day" width="10px" height="10px" y="36" style="fill: #eedade"/><rect class="day" width="10px" height="10px" y="48" style="fill: #eeeeee"/><rect class="day" width="10px" height="10px" y="60" style="fill: #eeeeee"/><rect class="day" width="10px" height="10px" y="72" style="fill: #eeeeee"/></g><g transform="translate(216, 0)"><rect class="day" width="10px" height="10px" y="0" style="fill: #eeeeee"/><rect class="day" width="10px" height="10px" y="12" style="fill: #eeeeee"/><rect class="day" width="10px" height="10px" y="24" style="fill: #eeeeee"/><rect class="day" width="10px" height="10px" y="36" style="fill: #eeeeee"/><rect class="day" width="10px" height="10px" y="48" style="fill: #eeeeee"/><rect class="day" width="10px" height="10px" y="60" style="fill: #eeeeee"/><rect class="day" width="10px" height="10px" y="72" style="fill: #eeeeee"/></g><g transform="translate(228, 0)"><rect class="day" width="10px" height="10px" y="0" style="fill: #eeeeee"/><rect class="day" width="10px" height="10px" y="12" style="fill: #eeeeee"/><rect class="day" width="10px" height="10px" y="24" style="fill: #eeeeee"/><rect class="day" width="10px" height="10px" y="36" style="fill: #eeeeee"/><rect class="day" width="10px" height="10px" y="48" style="fill: #eeeeee"/><rect class="day" width="10px" height="10px" y="60" style="fill: #eeeeee"/><rect class="day" width="10px" height="10px" y="72" style="fill: #eeeeee"/></g><g transform="translate(240, 0)"><rect class="day" width="10px" height="10px" y="0" style="fill: #eeeeee"/><rect class="day" width="10px" height="10px" y="12" style="fill: #eeeeee"/><rect class="day" width="10px" height="10px" y="24" style="fill: #eeeeee"/><rect class="day" width="10px" height="10px" y="36" style="fill: #eeeeee"/><rect class="day" width="10px" height="10px" y="48" style="fill: #d7dcee"/><rect class="day" width="10px" height="10px" y="60" style="fill: #d6dbee"/><rect class="day" width="10px" height="10px" y="72" style="fill: #cfd6ee"/></g><g transform="translate(252, 0)"><rect class="day" width="10px" height="10px" y="0" style="fill: #eeeeee"/><rect class="day" width="10px" height="10px" y="12" style="fill: #eeeeee"/><rect class="day" width="10px" height="10px" y="24" style="fill: #eeeeee"/><rect class="day" width="10px" height="10px" y="36" style="fill: #eeeeee"/><rect class="day" width="10px" height="10px" y="48" style="fill: #dbdfee"/><rect class="day" width="10px" height="10px" y="60" style="fill: #dadeee"/><rect class="day" width="10px" height="10px" y="72" style="fill: #eeeeee"/></g><g transform="translate(264, 0)"><rect class="day" width="10px" height="10px" y="0" style="fill: #eeeeee"/><rect class="day" width="10px" height="10px" y="12" style="fill: #eeeeee"/><rect class="day" width="10px" height="10px" y="24" style="fill: #d9deee"/><rect class="day" width="10px" height="10px" y="36" style="fill: #eeeeee"/><rect class="day" width="10px" height="10px" y="48" style="fill: #eeeeee"/><rect class="day" width="10px" height="10px" y="60" style="fill: #d9deee"/><rect class="day" width="10px" height="10px" y="72" style="fill: #eeeeee"/></g><g transform="translate(276, 0)"><rect class="day" width="10px" height="10px" y="0" style="fill: #d3d9ee"/><rect class="day" width="10px" height="10px" y="12" style="fill: #eeeeee"/><rect class="day" width="10px" height="10px" y="24" style="fill: #eeeeee"/><rect class="day" width="10px" height="10px" y="36" style="fill: #eeeeee"/><rect class="day" width="10px" height="10px" y="48" style="fill: #eeeeee"/><rect class="day" width="10px" height="10px" y="60" style="fill: #eeeeee"/><rect class="day" width="10px" height="10px" y="72" style="fill: #eeeeee"/></g><g transform="translate(288, 0)"><rect class="day" width="10px" height="10px" y="0" style="fill: #eeeeee"/><rect class="day" width="10px" height="10px" y="12" style="fill: #dadeee"/><rect class="day" width="10px" height="10px" y="24" style="fill: #d9deee"/><rect class="day" width="10px" height="10px" y="36" style="fill: #d6dcee"/><rect class="day" width="10px" height="10px" y="48" style="fill: #dbdfee"/><rect class="day" width="10px" height="10px" y="60" style="fill: #eeeeee"/><rect class="day" width="10px" height="10px" y="72" style="fill: #eeeeee"/></g><g transform="translate(300, 0)"><rect class="day" width="10px" height="10px" y="0" style="fill: #eeeeee"/><rect class="day" width="10px" height="10px" y="12" style="fill: #eeeeee"/><rect class="day" width="10px" height="10px" y="24" style="fill: #eeeeee"/><rect class="day" width="10px" height="10px" y="36" style="fill: #eeeeee"/><rect class="day" width="10px" height="10px" y="48" style="fill: #eeeeee"/><rect class="day" width="10px" height="10px" y="60" style="fill: #eeeeee"/><rect class="day" width="10px" height="10px" y="72" style="fill: #eeeeee"/></g><g transform="translate(312, 0)"><rect class="day" width="10px" height="10px" y="0" style="fill: #eeeeee"/><rect class="day" width="10px" height="10px" y="12" style="fill: #eeeeee"/><rect class="day" width="10px" height="10px" y="24" style="fill: #eeeeee"/><rect class="day" width="10px" height="10px" y="36" style="fill: #eeeeee"/><rect class="day" width="10px" height="10px" y="48" style="fill: #cbd3ee"/><rect class="day" width="10px" height="10px" y="60" style="fill: #eeeeee"/><rect class="day" width="10px" height="10px" y="72" style="fill: #d4daee"/></g><g transform="translate(324, 0)"><rect class="day" width="10px" height="10px" y="0" style="fill: #d9deee"/><rect class="day" width="10px" height="10px" y="12" style="fill: #d9deee"/><rect class="day" width="10px" height="10px" y="24" style="fill: #d1d8ee"/><rect class="day" width="10px" height="10px" y="36" style="fill: #d8ddee"/><rect class="day" width="10px" height="10px" y="48" style="fill: #d2d8ee"/><rect class="day" width="10px" height="10px" y="60" style="fill: #eeeeee"/><rect class="day" width="10px" height="10px" y="72" style="fill: #eeeeee"/></g><g transform="translate(336, 0)"><rect class="day" width="10px" height="10px" y="0" style="fill: #eeeeee"/><rect class="day" width="10px" height="10px" y="12" style="fill: #eeeeee"/><rect class="day" width="10px" height="10px" y="24" style="fill: #eeeeee"/><rect class="day" width="10px" height="10px" y="36" style="fill: #eeeeee"/><rect class="day" width="10px" height="10px" y="48" style="fill: #eeeeee"/><rect class="day" width="10px" height="10px" y="60" style="fill: #eeeeee"/><rect class="day" width="10px" height="10px" y="72" style="fill: #eeeeee"/></g><g transform="translate(348, 0)"><rect class="day" width="10px" height="10px" y="0" style="fill: #eeeeee"/><rect class="day" width="10px" height="10px" y="12" style="fill: #eeeeee"/><rect class="day" width="10px" height="10px" y="24" style="fill: #eeeeee"/><rect class="day" width="10px" height="10px" y="36" style="fill: #eeeeee"/><rect class="day" width="10px" height="10px" y="48" style="fill: #d0d7ee"/><rect class="day" width="10px" height="10px" y="60" style="fill: #eeeeee"/><rect class="day" width="10px" height="10px" y="72" style="fill: #eeeeee"/></g><g transform="translate(360, 0)"><rect class="day" width="10px" height="10px" y="0" style="fill: #eeeeee"/><rect class="day" width="10px" height="10px" y="12" style="fill: #eeeeee"/><rect class="day" width="10px" height="10px" y="24" style="fill: #eeeeee"/><rect class="day" width="10px" height="10px" y="36" style="fill: #d1d8ee"/><rect class="day" width="10px" height="10px" y="48" style="fill: #eeeeee"/><rect class="day" width="10px" height="10px" y="60" style="fill: #eeeeee"/><rect class="day" width="10px" height="10px" y="72" style="fill: #eeeeee"/></g><g transform="translate(372, 0)"><rect class="day" width="10px" height="10px" y="0" style="fill: #eeeeee"/><rect class="day" width="10px" height="10px" y="12" style="fill: #eeeeee"/><rect class="day" width="10px" height="10px" y="24" style="fill: #eeeeee"/><rect class="day" width="10px" height="10px" y="36" style="fill: #eeeeee"/><rect class="day" width="10px" height="10px" y="48" style="fill: #d9deee"/><rect class="day" width="10px" height="10px" y="60" style="fill: #eeeeee"/><rect class="day" width="10px" height="10px" y="72" style="fill: #dbdfee"/></g><g transform="translate(384, 0)"><rect class="day" width="10px" height="10px" y="0" style="fill: #eeeeee"/><rect class="day" width="10px" height="10px" y="12" style="fill: #eeeeee"/><rect class="day" width="10px" height="10px" y="24" style="fill: #ced5ee"/><rect class="day" width="10px" height="10px" y="36" style="fill: #eeeeee"/><rect class="day" width="10px" height="10px" y="48" style="fill: #eeeeee"/><rect class="day" width="10px" height="10px" y="60" style="fill: #eeeeee"/><rect class="day" width="10px" height="10px" y="72" style="fill: #eeeeee"/></g><g transform="translate(396, 0)"><rect class="day" width="10px" height="10px" y="0" style="fill: #eeeeee"/><rect class="day" width="10px" height="10px" y="12" style="fill: #eeeeee"/><rect class="day" width="10px" height="10px" y="24" style="fill: #eeeeee"/><rect class="day" width="10px" height="10px" y="36" style="fill: #eeeeee"/><rect class="day" width="10px" height="10px" y="48" style="fill: #dadeee"/><rect class="day" width="10px" height="10px" y="60" style="fill: #dadeee"/><rect class="day" width="10px" height="10px" y="72" style="fill: #dbdfee"/></g><g transform="translate(408, 0)"><rect class="day" width="10px" height="10px" y="0" style="fill: #dbdfee"/><rect class="day" width="10px" height="10px" y="12" style="fill: #dadeee"/><rect class="day" width="10px" height="10px" y="24" style="fill: #dadeee"/><rect class="day" width="10px" height="10px" y="36" style="fill: #d8ddee"/><rect class="day" width="10px" height="10px" y="48" style="fill: #eeeeee"/><rect class="day" width="10px" height="10px" y="60" style="fill: #eeeeee"/><rect class="day" width="10px" height="10px" y="72" style="fill: #eeeeee"/></g><g transform="translate(420, 0)"><rect class="day" width="10px" height="10px" y="0" style="fill: #eeeeee"/><rect class="day" width="10px" height="10px" y="12" style="fill: #eeeeee"/><rect class="day" width="10px" height="10px" y="24" style="fill: #dbdfee"/><rect class="day" width="10px" height="10px" y="36" style="fill: #dadeee"/><rect class="day" width="10px" height="10px" y="48" style="fill: #d8ddee"/><rect class="day" width="10px" height="10px" y="60" style="fill: #d6dbee"/><rect class="day" width="10px" height="10px" y="72" style="fill: #d8ddee"/></g><g transform="translate(432, 0)"><rect class="day" width="10px" height="10px" y="0" style="fill: #eeeeee"/><rect class="day" width="10px" height="10px" y="12" style="fill: #dbdfee"/><rect class="day" width="10px" height="10px" y="24" style="fill: #eeeeee"/><rect class="day" width="10px" height="10px" y="36" style="fill: #eeeeee"/><rect class="day" width="10px" height="10px" y="48" style="fill: #eeeeee"/><rect class="day" width="10px" height="10px" y="60" style="fill: #eeeeee"/><rect class="day" width="10px" height="10px" y="72" style="fill: #d9deee"/></g><g transform="translate(444, 0)"><rect class="day" width="10px" height="10px" y="0" style="fill: #d7dcee"/><rect class="day" width="10px" height="10px" y="12" style="fill: #eeeeee"/><rect class="day" width="10px" height="10px" y="24" style="fill: #eeeeee"/><rect class="day" width="10px" height="10px" y="36" style="fill: #eeeeee"/><rect class="day" width="10px" height="10px" y="48" style="fill: #cfd6ee"/><rect class="day" width="10px" height="10px" y="60" style="fill: #d9deee"/><rect class="day" width="10px" height="10px" y="72" style="fill: #eeeeee"/></g><g transform="translate(456, 0)"><rect class="day" width="10px" height="10px" y="0" style="fill: #d1d8ee"/><rect class="day" width="10px" height="10px" y="12" style="fill: #eeeeee"/><rect class="day" width="10px" height="10px" y="24" style="fill: #d9deee"/><rect class="day" width="10px" height="10px" y="36" style="fill: #dbdfee"/><rect class="day" width="10px" height="10px" y="48" style="fill: #d9deee"/><rect class="day" width="10px" height="10px" y="60" style="fill: #dadeee"/><rect class="day" width="10px" height="10px" y="72" style="fill: #d9deee"/></g><g transform="translate(468, 0)"><rect class="day" width="10px" height="10px" y="0" style="fill: #dadeee"/><rect class="day" width="10px" height="10px" y="12" style="fill: #dadeee"/><rect class="day" width="10px" height="10px" y="24" style="fill: #eeeeee"/><rect class="day" width="10px" height="10px" y="36" style="fill: #eeeeee"/><rect class="day" width="10px" height="10px" y="48" style="fill: #eeeeee"/><rect class="day" width="10px" height="10px" y="60" style="fill: #dacbdf"/><rect class="day" width="10px" height="10px" y="72" style="fill: #d8ddee"/></g><g transform="translate(480, 0)"><rect class="day" width="10px" height="10px" y="0" style="fill: #eeeeee"/><rect class="day" width="10px" height="10px" y="12" style="fill: #eedade"/><rect class="day" width="10px" height="10px" y="24" style="fill: #eeeeee"/><rect class="day" width="10px" height="10px" y="36" style="fill: #eeeeee"/><rect class="day" width="10px" height="10px" y="48" style="fill: #dadeee"/><rect class="day" width="10px" height="10px" y="60" style="fill: #d7c9df"/><rect class="day" width="10px" height="10px" y="72" style="fill: #eeeeee"/></g><g transform="translate(492, 0)"><rect class="day" width="10px" height="10px" y="0" style="fill: #eeeeee"/><rect class="day" width="10px" height="10px" y="12" style="fill: #d8ddee"/><rect class="day" width="10px" height="10px" y="24" style="fill: #eed9de"/><rect class="day" width="10px" height="10px" y="36" style="fill: #eedade"/><rect class="day" width="10px" height="10px" y="48" style="fill: #eeeeee"/><rect class="day" width="10px" height="10px" y="60" style="fill: #eeeeee"/><rect class="day" width="10px" height="10px" y="72" style="fill: #eeeeee"/></g><g transform="translate(504, 0)"><rect class="day" width="10px" height="10px" y="0" style="fill: #eedbdf"/><rect class="day" width="10px" height="10px" y="12" style="fill: #eeeeee"/><rect class="day" width="10px" height="10px" y="24" style="fill: #eeeeee"/><rect class="day" width="10px" height="10px" y="36" style="fill: #eeeeee"/><rect class="day" width="10px" height="10px" y="48" style="fill: #eed9de"/><rect class="day" width="10px" height="10px" y="60" style="fill: #eeeeee"/><rect class="day" width="10px" height="10px" y="72" style="fill: #eeeeee"/></g><g transform="translate(516, 0)"><rect class="day" width="10px" height="10px" y="0" style="fill: #eeeeee"/><rect class="day" width="10px" height="10px" y="12" style="fill: #eeeeee"/><rect class="day" width="10px" height="10px" y="24" style="fill: #eeeeee"/><rect class="day" width="10px" height="10px" y="36" style="fill: #eeeeee"/><rect class="day" width="10px" height="10px" y="48" style="fill: #eeeeee"/><rect class="day" width="10px" height="10px" y="60" style="fill: #eeeeee"/><rect class="day" width="10px" height="10px" y="72" style="fill: #eeeeee"/></g><g transform="translate(528, 0)"><rect class="day" width="10px" height="10px" y="0" style="fill: #eeeeee"/><rect class="day" width="10px" height="10px" y="12" style="fill: #eeeeee"/><rect class="day" width="10px" height="10px" y="24" style="fill: #eeeeee"/><rect class="day" width="10px" height="10px" y="36" style="fill: #eeeeee"/><rect class="day" width="10px" height="10px" y="48" style="fill: #eeeeee"/><rect class="day" width="10px" height="10px" y="60" style="fill: #d9deee"/><rect class="day" width="10px" height="10px" y="72" style="fill: #eeeeee"/></g><g transform="translate(540, 0)"><rect class="day" width="10px" height="10px" y="0" style="fill: #eeeeee"/><rect class="day" width="10px" height="10px" y="12" style="fill: #eeeeee"/><rect class="day" width="10px" height="10px" y="24" style="fill: #eeeeee"/><rect class="day" width="10px" height="10px" y="36" style="fill: #eeeeee"/><rect class="day" width="10px" height="10px" y="48" style="fill: #eeeeee"/><rect class="day" width="10px" height="10px" y="60" style="fill: #eeeeee"/><rect class="day" width="10px" height="10px" y="72" style="fill: #eeeeee"/></g><g transform="translate(552, 0)"><rect class="day" width="10px" height="10px" y="0" style="fill: #eeeeee"/><rect class="day" width="10px" height="10px" y="12" style="fill: #eeeeee"/><rect class="day" width="10px" height="10px" y="24" style="fill: #eeeeee"/><rect class="day" width="10px" height="10px" y="36" style="fill: #eeeeee"/><rect class="day" width="10px" height="10px" y="48" style="fill: #c4cdee"/><rect class="day" width="10px" height="10px" y="60" style="fill: #d2d8ee"/><rect class="day" width="10px" height="10px" y="72" style="fill: #d4daee"/></g><g transform="translate(564, 0)"><rect class="day" width="10px" height="10px" y="0" style="fill: #eeeeee"/><rect class="day" width="10px" height="10px" y="12" style="fill: #eeeeee"/><rect class="day" width="10px" height="10px" y="24" style="fill: #eeeeee"/><rect class="day" width="10px" height="10px" y="36" style="fill: #eeeeee"/><rect class="day" width="10px" height="10px" y="48" style="fill: #d4daee"/><rect class="day" width="10px" height="10px" y="60" style="fill: #eeeeee"/><rect class="day" width="10px" height="10px" y="72" style="fill: #d5daee"/></g><g transform="translate(576, 0)"><rect class="day" width="10px" height="10px" y="0" style="fill: #eeeeee"/><rect class="day" width="10px" height="10px" y="12" style="fill: #eeeeee"/><rect class="day" width="10px" height="10px" y="24" style="fill: #d9deee"/><rect class="day" width="10px" height="10px" y="36" style="fill: #d6dbee"/><rect class="day" width="10px" height="10px" y="48" style="fill: #eeeeee"/><rect class="day" width="10px" height="10px" y="60" style="fill: #eeeeee"/><rect class="day" width="10px" height="10px" y="72" style="fill: #eeeeee"/></g><g transform="translate(588, 0)"><rect class="day" width="10px" height="10px" y="0" style="fill: #eeeeee"/><rect class="day" width="10px" height="10px" y="12" style="fill: #eeeeee"/><rect class="day" width="10px" height="10px" y="24" style="fill: #eeeeee"/><rect class="day" width="10px" height="10px" y="36" style="fill: #eeeeee"/><rect class="day" width="10px" height="10px" y="48" style="fill: #eeeeee"/><rect class="day" width="10px" height="10px" y="60" style="fill: #eeeeee"/><rect class="day" width="10px" height="10px" y="72" style="fill: #eeeeee"/></g><g transform="translate(600, 0)"><rect class="day" width="10px" height="10px" y="0" style="fill: #eeeeee"/><rect class="day" width="10px" height="10px" y="12" style="fill: #eeeeee"/><rect class="day" width="10px" height="10px" y="24" style="fill: #eeeeee"/><rect class="day" width="10px" height="10px" y="36" style="fill: #eeeeee"/><rect class="day" width="10px" height="10px" y="48" style="fill: #eeeeee"/><rect class="day" width="10px" height="10px" y="60" style="fill: #eeeeee"/><rect class="day" width="10px" height="10px" y="72" style="fill: #eeeeee"/></g><g transform="translate(612, 0)"><rect class="day" width="10px" height="10px" y="0" style="fill: #eeeeee"/><rect class="day" width="10px" height="10px" y="12" style="fill: #eeeeee"/><rect class="day" width="10px" height="10px" y="24" style="fill: #eeeeee"/><rect class="day" width="10px" height="10px" y="36" style="fill: #eeeeee"/><rect class="day" width="10px" height="10px" y="48" style="fill: #eeeeee"/><rect class="day" width="10px" height="10px" y="60" style="fill: #eeeeee"/><rect class="day" width="10px" height="10px" y="72" style="fill: #eeeeee"/></g></svg>